<svg id="Group_2216" data-name="Group 2216" xmlns="http://www.w3.org/2000/svg" xmlns:xlink="http://www.w3.org/1999/xlink" width="173.72" height="34.834" viewBox="0 0 173.72 34.834">
  <defs>
    <linearGradient id="linear-gradient" x1="630.386" y1="-0.658" x2="632.386" y2="-0.658" gradientUnits="objectBoundingBox">
      <stop offset="0" stop-color="#4fc5d3"/>
      <stop offset="1" stop-color="#6482c1"/>
    </linearGradient>
  </defs>
  <g id="Group_1" data-name="Group 1">
    <path id="Path_78-2" data-name="Path 78-2" d="M74.248,1.345l3.391,5.808L83.262-2.6H76.511A2.619,2.619,0,0,0,73.89.02,2.616,2.616,0,0,0,74.248,1.345Z" transform="translate(-73.89 2.639)" fill="#fff"/>
    <path id="Path_79-2" data-name="Path 79-2" d="M79.338,10.553l1.987,3.409L90.884-2.6H86.929Z" transform="translate(-73.601 2.639)" fill="#fff"/>
    <path id="Path_80-2" data-name="Path 80-2" d="M83.108,17.366,85.1,20.774,98.593-2.6H94.634Z" transform="translate(-73.401 2.639)" fill="#fff"/>
    <path id="Path_81-2" data-name="Path 81-2" d="M100.927-2.637l-3,5.195a7.74,7.74,0,0,1,3.265-.727,7.57,7.57,0,0,1,1.07.076l2.624-4.544Z" transform="translate(-72.614 2.637)" fill="#fff"/>
    <path id="Path_82-2" data-name="Path 82-2" d="M104.309,15.763l-3.054,5.308-5.083,8.8a3.729,3.729,0,0,1-3.936,1.193c-.08-.025-.161-.051-.241-.084l-.211-.362L97.3,21.071l2.83-4.9a7.491,7.491,0,0,0,1.381.126A7.711,7.711,0,0,0,104.309,15.763Z" transform="translate(-72.94 3.614)" fill="#fff"/>
    <path id="Path_83" data-name="Path 83" d="M95.781,6.018c-.073.13-.14.256-.2.388L96.11,5.5C95.992,5.662,95.886,5.837,95.781,6.018Z" transform="translate(-72.739 3.069)" fill="#231f20"/>
    <path id="Path_84" data-name="Path 84" d="M95.781,6.018c-.073.13-.14.256-.2.388L96.11,5.5C95.992,5.662,95.886,5.837,95.781,6.018Z" transform="translate(-72.739 3.069)" fill="url(#linear-gradient)"/>
    <path id="Path_85" data-name="Path 85" d="M112.826-2.242a2.6,2.6,0,0,0-1.264-.354L108.2,3.392,107.6,4.478l-.723,1.29a6.339,6.339,0,0,0-10.293.158h0l-.527.909h0l-.006.013h0q-.068.141-.126.284L94.433,9.795l-.316.564L87.988,21.3l-1.33,2.377-.056.1,2.145,3.741.062-.112,3.421-6.108,3.739-6.673.719-1.286a6.348,6.348,0,0,0,8.883,1.292,11.777,11.777,0,0,0,2.069-2.661l1.8-3.222.906-1.616L114.073.49A2.621,2.621,0,0,0,112.826-2.242ZM103.559,10.54a2.034,2.034,0,1,1-.781-2.77,2.035,2.035,0,0,1,.781,2.77h0Z" transform="translate(-73.215 2.639)" fill="#0076b5"/>
  </g>
  <g id="Group_14" data-name="Group 14" transform="translate(46.953 9.605)">
    <path id="Path_25" data-name="Path 25" d="M-4469.377,17.327V0h5.44a9.161,9.161,0,0,1,6.59,2.24A8.239,8.239,0,0,1-4455,8.5a8.534,8.534,0,0,1-2.435,6.554q-2.437,2.276-7.035,2.276Zm3.674-3.034h1.576q5.31,0,5.31-5.7,0-5.582-4.931-5.582h-1.955Zm-17.469,3.034V0h5.535a7.362,7.362,0,0,1,4.794,1.357A4.946,4.946,0,0,1-4471.2,5.4a5.3,5.3,0,0,1-1.749,4.279,7.474,7.474,0,0,1-4.971,1.481h-1.577v6.163Zm3.674-9.173h1.209a4.027,4.027,0,0,0,2.536-.67,2.343,2.343,0,0,0,.842-1.95,2.4,2.4,0,0,0-.706-1.908,3.3,3.3,0,0,0-2.21-.616h-1.671Zm-14.625,9.173L-4500,0h3.71l3.259,10.311q.274.912.563,2.127t.361,1.689a30.44,30.44,0,0,1,.889-3.816L-4487.937,0h3.711l-5.891,17.327Z" transform="translate(4500.002 1.11)" fill="#fff" stroke="rgba(0,0,0,0)" stroke-width="1"/>
    <path id="Path_24" data-name="Path 24" d="M20.109-3.9H23.1V13.413H19.744V3.954l-3.988,9.459H13.3L9.289,4.076v9.337H5.957V-3.9H8.972L14.565,8.866ZM32.242,13.607a7.255,7.255,0,0,1-3.441-.778,5.375,5.375,0,0,1-2.261-2.237,7.039,7.039,0,0,1-.79-3.4,7.039,7.039,0,0,1,.79-3.4A5.375,5.375,0,0,1,28.8,1.547,7.255,7.255,0,0,1,32.242.769a7.129,7.129,0,0,1,3.4.778A5.392,5.392,0,0,1,37.9,3.784a7.039,7.039,0,0,1,.79,3.4,7.039,7.039,0,0,1-.79,3.4,5.392,5.392,0,0,1-2.249,2.237A7.129,7.129,0,0,1,32.242,13.607Zm0-2.8a2.5,2.5,0,0,0,2.079-.9,4.32,4.32,0,0,0,.717-2.723,4.329,4.329,0,0,0-.717-2.711,2.487,2.487,0,0,0-2.079-.912,2.549,2.549,0,0,0-2.115.912A4.276,4.276,0,0,0,29.4,7.188Q29.4,10.811,32.242,10.811ZM48.655.769q4.377,0,4.377,5.179v7.465H49.361V6.118a3.022,3.022,0,0,0-.474-1.884,1.8,1.8,0,0,0-1.5-.6,2.54,2.54,0,0,0-1.945.778,2.934,2.934,0,0,0-.729,2.091v6.906H41.045v-8.8a28.667,28.667,0,0,0-.195-3.526H44.3l.243,1.945A4.536,4.536,0,0,1,46.26,1.352,4.875,4.875,0,0,1,48.655.769ZM67.014,7.553H58.892a3.721,3.721,0,0,0,.9,2.517,3.264,3.264,0,0,0,2.383.79,5.966,5.966,0,0,0,1.9-.316,6.048,6.048,0,0,0,1.751-.924l.973,2.48a6.468,6.468,0,0,1-2.176,1.106,8.826,8.826,0,0,1-2.614.4,6.741,6.741,0,0,1-4.887-1.714,6.2,6.2,0,0,1-1.775-4.681,7.132,7.132,0,0,1,.766-3.343A5.578,5.578,0,0,1,58.26,1.583,6.074,6.074,0,0,1,61.4.769a5.227,5.227,0,0,1,4.109,1.69,6.6,6.6,0,0,1,1.508,4.559Zm-5.52-4.207a2.362,2.362,0,0,0-1.69.608,3.048,3.048,0,0,0-.839,1.775h4.887Q63.561,3.346,61.494,3.346ZM81.238,1.085l-5.69,12.984a8.048,8.048,0,0,1-2.638,3.465,8.834,8.834,0,0,1-3.9,1.422l-.851-2.821a7.875,7.875,0,0,0,2.565-.924,3.705,3.705,0,0,0,1.35-1.629l.365-.8-5.082-11.7H71.2l3.161,8,3.258-8Z" transform="translate(45.529 3.9)" fill="#0076b5"/>
  </g>
</svg>
