<svg xmlns="http://www.w3.org/2000/svg" xmlns:xlink="http://www.w3.org/1999/xlink" width="198.196" height="39.741" viewBox="0 0 198.196 39.741">
  <defs>
    <linearGradient id="linear-gradient" x1="630.386" y1="-0.658" x2="632.386" y2="-0.658" gradientUnits="objectBoundingBox">
      <stop offset="0" stop-color="#4fc5d3"/>
      <stop offset="1" stop-color="#6482c1"/>
    </linearGradient>
  </defs>
  <g id="Group_2220" data-name="Group 2220" transform="translate(-14948.602 2986.671)">
    <g id="Group_1" data-name="Group 1" transform="translate(14948.602 -2986.671)">
      <path id="Path_78-2" data-name="Path 78-2" d="M74.3,1.9l3.869,6.626L84.583-2.6h-7.7A2.989,2.989,0,0,0,74.3,1.9Z" transform="translate(-73.89 2.645)"/>
      <path id="Path_79-2" data-name="Path 79-2" d="M79.338,12.405l2.267,3.889L92.511-2.6H88Z" transform="translate(-72.793 2.645)"/>
      <path id="Path_80-2" data-name="Path 80-2" d="M83.108,20.179l2.272,3.888L100.774-2.6H96.258Z" transform="translate(-72.033 2.645)"/>
      <path id="Path_81-2" data-name="Path 81-2" d="M101.35-2.637,97.928,3.29a8.83,8.83,0,0,1,3.725-.829,8.637,8.637,0,0,1,1.221.087l2.994-5.184Z" transform="translate(-69.048 2.637)"/>
      <path id="Path_82-2" data-name="Path 82-2" d="M106.074,15.763l-3.484,6.055-5.8,10.04A4.254,4.254,0,0,1,92.3,33.22c-.091-.029-.184-.058-.275-.1l-.24-.413,6.29-10.892,3.228-5.59a8.546,8.546,0,0,0,1.575.144A8.8,8.8,0,0,0,106.074,15.763Z" transform="translate(-70.285 6.344)"/>
      <path id="Path_83" data-name="Path 83" d="M95.809,6.092c-.083.148-.16.292-.226.442l.6-1.037C96.049,5.686,95.929,5.885,95.809,6.092Z" transform="translate(-69.52 4.276)" fill="#231f20"/>
      <path id="Path_84" data-name="Path 84" d="M95.809,6.092c-.083.148-.16.292-.226.442l.6-1.037C96.049,5.686,95.929,5.885,95.809,6.092Z" transform="translate(-69.52 4.276)" fill="url(#linear-gradient)"/>
      <path id="Path_85" data-name="Path 85" d="M116.52-2.192a2.971,2.971,0,0,0-1.442-.4l-3.83,6.831-.693,1.239-.825,1.472a7.232,7.232,0,0,0-11.743.18h0l-.6,1.037h0l-.007.014h0q-.077.16-.144.324l-1.7,3.038-.36.644L88.183,24.661l-1.517,2.712-.064.112,2.447,4.268.071-.127,3.9-6.968,4.266-7.614.821-1.467a7.242,7.242,0,0,0,10.134,1.474,13.436,13.436,0,0,0,2.361-3.036l2.059-3.676L113.7,8.493,117.943.924A2.991,2.991,0,0,0,116.52-2.192ZM105.948,12.391a2.321,2.321,0,1,1-.891-3.16,2.322,2.322,0,0,1,.891,3.16h0Z" transform="translate(-71.329 2.645)" fill="#0076b5"/>
    </g>
    <path id="Path_25" data-name="Path 25" d="M-4465.062,19.768V0h6.207q4.841,0,7.518,2.555a9.4,9.4,0,0,1,2.678,7.139q0,4.881-2.778,7.477t-8.026,2.6Zm4.192-3.461h1.8q6.058,0,6.058-6.5,0-6.369-5.625-6.369h-2.23Zm-19.931,3.461V0h6.314a8.4,8.4,0,0,1,5.47,1.548,5.645,5.645,0,0,1,1.873,4.618,6.041,6.041,0,0,1-1.995,4.881,8.529,8.529,0,0,1-5.672,1.69h-1.8v7.031Zm4.191-10.465h1.379a4.6,4.6,0,0,0,2.894-.764,2.674,2.674,0,0,0,.96-2.224,2.739,2.739,0,0,0-.805-2.177,3.766,3.766,0,0,0-2.521-.7h-1.906Zm-16.685,10.465L-4500,0h4.232l3.719,11.764q.311,1.041.642,2.427t.412,1.926a34.809,34.809,0,0,1,1.015-4.354L-4486.236,0H-4482l-6.72,19.768Z" transform="translate(19502.17 -2974.446)" stroke="rgba(0,0,0,0)" stroke-width="1"/>
    <path id="Path_24" data-name="Path 24" d="M22.1-3.9h3.412V15.852H21.687V5.061l-4.55,10.791h-2.8L9.758,5.2V15.852h-3.8V-3.9H9.4l6.38,14.564ZM35.946,16.074a8.278,8.278,0,0,1-3.925-.888,6.132,6.132,0,0,1-2.58-2.552,8.031,8.031,0,0,1-.9-3.884,8.031,8.031,0,0,1,.9-3.884,6.132,6.132,0,0,1,2.58-2.552,8.278,8.278,0,0,1,3.925-.888,8.133,8.133,0,0,1,3.884.888A6.152,6.152,0,0,1,42.4,4.867a8.031,8.031,0,0,1,.9,3.884,8.031,8.031,0,0,1-.9,3.884,6.152,6.152,0,0,1-2.566,2.552A8.133,8.133,0,0,1,35.946,16.074Zm0-3.19a2.854,2.854,0,0,0,2.372-1.026,4.929,4.929,0,0,0,.818-3.107,4.939,4.939,0,0,0-.818-3.093,2.838,2.838,0,0,0-2.372-1.04,2.909,2.909,0,0,0-2.413,1.04A4.878,4.878,0,0,0,32.7,8.75Q32.7,12.884,35.946,12.884ZM54.671,1.427q4.993,0,4.993,5.909v8.517H55.476V7.53a3.448,3.448,0,0,0-.541-2.15,2.049,2.049,0,0,0-1.706-.68,2.9,2.9,0,0,0-2.219.888,3.347,3.347,0,0,0-.832,2.386v7.879H45.988V5.81a32.705,32.705,0,0,0-.222-4.022h3.939l.277,2.219a5.175,5.175,0,0,1,1.956-1.914A5.561,5.561,0,0,1,54.671,1.427Zm20.945,7.74H66.35a4.245,4.245,0,0,0,1.026,2.871,3.724,3.724,0,0,0,2.719.9,6.807,6.807,0,0,0,2.164-.361,6.9,6.9,0,0,0,2-1.054l1.11,2.83a7.38,7.38,0,0,1-2.483,1.262,10.069,10.069,0,0,1-2.982.458,7.69,7.69,0,0,1-5.576-1.956A7.077,7.077,0,0,1,62.3,8.778a8.137,8.137,0,0,1,.874-3.814,6.364,6.364,0,0,1,2.455-2.608,6.929,6.929,0,0,1,3.579-.929A5.964,5.964,0,0,1,73.9,3.355a7.527,7.527,0,0,1,1.72,5.2Zm-6.3-4.8a2.7,2.7,0,0,0-1.928.694,3.477,3.477,0,0,0-.957,2.025h5.576Q71.676,4.367,69.318,4.367Zm22.526-2.58L85.353,16.6a9.181,9.181,0,0,1-3.01,3.953,10.079,10.079,0,0,1-4.452,1.623l-.971-3.218A8.985,8.985,0,0,0,79.846,17.9a4.227,4.227,0,0,0,1.54-1.859l.416-.915L76,1.787h4.383l3.606,9.127,3.717-9.127Z" transform="translate(15054.953 -2971.813)" fill="#0076b5"/>
    <text id="The_Bank_of_you" data-name="The Bank of you" transform="translate(15146.798 -2977.043)" font-size="5" font-family="OpenSans-Bold, Open Sans" font-weight="700" letter-spacing="0.05em"><tspan x="-48" y="0">THE BANK OF YOU</tspan></text>
  </g>
</svg>
