<svg xmlns="http://www.w3.org/2000/svg" width="96.366" height="49.183" viewBox="0 0 96.366 49.183"><defs><style>.a{fill:none;stroke:#3bc47d;stroke-width:2px;}</style></defs><path class="a" d="M47.183,32.54a41.721,41.721,0,0,1,16.671,3.539,11.734,11.734,0,0,1,6.92,10.734v6.37H23.592v-6.33a11.652,11.652,0,0,1,6.92-10.734A41.051,41.051,0,0,1,47.183,32.54Zm-31.455.983a7.864,7.864,0,1,0-7.864-7.864,7.864,7.864,0,0,0,7.864,7.864Zm4.443,4.325a27.455,27.455,0,0,0-4.443-.393A27.326,27.326,0,0,0,4.8,39.735,7.906,7.906,0,0,0,0,47.01v6.173H17.694v-6.33a17.688,17.688,0,0,1,2.477-9Zm58.468-4.325a7.864,7.864,0,1,0-7.864-7.864,7.864,7.864,0,0,0,7.864,7.864ZM94.366,47.01a7.906,7.906,0,0,0-4.8-7.274A26.73,26.73,0,0,0,74.2,37.849a17.688,17.688,0,0,1,2.477,9v6.33H94.366ZM47.183,6a11.78,11.78,0,1,1-8.35,3.45A11.8,11.8,0,0,1,47.183,6Z" transform="translate(1 -5)"/></svg>