<svg xmlns="http://www.w3.org/2000/svg" width="62.963" height="62.963" viewBox="0 0 62.963 62.963">
  <g id="account" transform="translate(0 0)">
    <path id="Path_3945" data-name="Path 3945" d="M62.963,47.345A15.644,15.644,0,0,0,52.5,32.6a37.641,37.641,0,0,0,.382-5.338V10.821a1.845,1.845,0,0,0-1.845-1.845A36.413,36.413,0,0,1,27.616.424a1.845,1.845,0,0,0-2.353,0A36.326,36.326,0,0,1,1.845,8.977,1.845,1.845,0,0,0,0,10.821V27.263A37.42,37.42,0,0,0,25.869,62.872a1.844,1.844,0,0,0,1.14,0,37.338,37.338,0,0,0,9.272-4.505,15.624,15.624,0,0,0,22.655-.555h0a15.586,15.586,0,0,0,4.026-10.467Zm-3.689,0a11.91,11.91,0,0,1-1.442,5.685,12.694,12.694,0,0,0-4.7-4.16,6.764,6.764,0,1,0-11.572,0,12.694,12.694,0,0,0-4.7,4.16,11.928,11.928,0,1,1,22.415-5.685Zm-14.009.3a3.047,3.047,0,0,1-.994-2.264,3.074,3.074,0,1,1,6.149,0,3.047,3.047,0,0,1-.994,2.264,12.581,12.581,0,0,0-4.162,0ZM42.3,28.556a24.087,24.087,0,0,1-.359,4.135A15.639,15.639,0,0,0,31.766,48.452a23.968,23.968,0,0,1-5.327,2.72A24.036,24.036,0,0,1,10.576,28.556V18.509a28.022,28.022,0,0,0,15.864-6.242A28.022,28.022,0,0,0,42.3,18.508ZM26.439,59.173A33.729,33.729,0,0,1,3.689,27.263V12.624A40.009,40.009,0,0,0,26.44,4.216a40.119,40.119,0,0,0,22.75,8.407v14.64a33.953,33.953,0,0,1-.307,4.54,15.657,15.657,0,0,0-3.082,0c.275-2.336.192-3.112.192-15.079a1.845,1.845,0,0,0-1.845-1.845A24.336,24.336,0,0,1,28.121,8.858l-.466-.408a1.844,1.844,0,0,0-2.431,0l-.465.407A24.326,24.326,0,0,1,8.731,14.88a1.845,1.845,0,0,0-1.845,1.845V28.556A27.728,27.728,0,0,0,25.856,54.874a1.844,1.844,0,0,0,1.167,0,27.7,27.7,0,0,0,5.521-2.541A15.564,15.564,0,0,0,34,55.456a33.64,33.64,0,0,1-7.558,3.717ZM39.3,56.149a8.981,8.981,0,0,1,16.093,0A11.929,11.929,0,0,1,39.3,56.149Z" transform="translate(0 0)" fill="#0993dc"/>
    <path id="Path_3946" data-name="Path 3946" d="M171.148,198.02a1.845,1.845,0,0,0-2.609,2.609l3.935,3.935a1.844,1.844,0,0,0,2.609,0L184,195.648a1.845,1.845,0,0,0-2.609-2.609l-7.611,7.611Z" transform="translate(-147.34 -168.827)" fill="#0993dc"/>
  </g>
</svg>
