<svg xmlns="http://www.w3.org/2000/svg" width="57.613" height="55.616" viewBox="0 0 57.613 55.616"><defs><style>.a{fill:none;stroke:#3bc47d;stroke-width:2px;}</style></defs><path class="a" d="M10.89,23.456H2.513A2.513,2.513,0,0,0,0,25.969V51.1a2.513,2.513,0,0,0,2.513,2.513H10.89A2.513,2.513,0,0,0,13.4,51.1V25.969a2.513,2.513,0,0,0-2.51-2.513ZM6.7,49.424a2.513,2.513,0,1,1,2.513-2.513A2.513,2.513,0,0,1,6.7,49.424Zm35.508-38.9c0,4.441-2.719,6.933-3.485,9.9H49.377a6.257,6.257,0,0,1,6.236,6.084,7.582,7.582,0,0,1-2.036,5.152l-.012.012A8.747,8.747,0,0,1,52.591,40a8.28,8.28,0,0,1-1.715,7.828,5.559,5.559,0,0,1-.644,4.674c-2.137,3.071-7.434,3.114-11.913,3.114h-.3c-5.056,0-9.194-1.843-12.519-3.322A16.479,16.479,0,0,0,19.988,50.6a1.257,1.257,0,0,1-1.234-1.256V26.956a1.255,1.255,0,0,1,.373-.892c4.148-4.1,5.932-8.438,9.332-11.844,1.55-1.553,2.114-3.9,2.659-6.168C31.583,6.114,32.557,2,34.67,2c2.513,0,7.54.838,7.54,8.529Z" transform="translate(1 -1)"/></svg>