<svg xmlns="http://www.w3.org/2000/svg" width="90.469" height="55.102" viewBox="0 0 90.469 55.102"><defs><style>.a{fill:none;stroke:#3bc47d;stroke-width:2px;}</style></defs><path class="a" d="M60.087,4.5H48.213a4.422,4.422,0,0,0-2.986,1.161L31.64,18.1c-.014.014-.028.041-.041.055a5.5,5.5,0,0,0-.29,7.741,5.765,5.765,0,0,0,7.754.373c.014-.014.041-.014.055-.028L50.162,16.125a2.211,2.211,0,1,1,2.986,3.262l-3.608,3.3L69.666,39.029a9.958,9.958,0,0,1,1.092,1.064V13.346L63.211,5.8a4.391,4.391,0,0,0-3.124-1.3ZM75.2,13.374V44.323a4.418,4.418,0,0,0,4.423,4.423h8.846V13.374Zm6.63,30.949a2.212,2.212,0,1,1,2.212-2.212,2.212,2.212,0,0,1-2.212,2.212ZM0,48.732H8.846a4.418,4.418,0,0,0,4.423-4.423V13.374H0ZM6.635,39.9a2.212,2.212,0,1,1-2.212,2.212A2.212,2.212,0,0,1,6.635,39.9Zm60.253,2.571L46.251,25.718l-4.147,3.8a9.95,9.95,0,1,1-13.45-14.665L39.961,4.5H28.378a4.415,4.415,0,0,0-3.124,1.3l-7.561,7.547V44.3h2.53L32.732,55.616a8.845,8.845,0,0,0,12.44-1.286l.028-.03,2.474,2.143A5.137,5.137,0,0,0,54.9,55.7l4.34-5.336.746.608a4.416,4.416,0,0,0,6.22-.65L67.524,48.7a4.431,4.431,0,0,0-.636-6.234Z" transform="translate(1 -3.5)"/></svg>