<svg xmlns="http://www.w3.org/2000/svg" width="73.028" height="67.538" viewBox="0 0 73.028 67.538">
  <path id="_7" data-name="7" d="M71.266,35.123V34.65a29.671,29.671,0,0,0-59.342.162v.27A9.467,9.467,0,0,0,5,44.2v2.7a9.467,9.467,0,0,0,9.467,9.467h1.42A17.581,17.581,0,0,0,33.4,72.6h8.114a6.762,6.762,0,0,0,6.762-6.762V64.483a1.352,1.352,0,0,0-1.352-1.352H36.1a1.352,1.352,0,0,0-1.352,1.352v5.41H33.4A14.876,14.876,0,0,1,18.524,55.017V36.084a1.352,1.352,0,0,0-1.352-1.352H14.629a26.966,26.966,0,0,1,53.933-.081v.081h-2.7A1.352,1.352,0,0,0,64.5,36.084V55.017a1.352,1.352,0,0,0,1.352,1.352h2.7A9.467,9.467,0,0,0,78.028,46.9V44.2a9.467,9.467,0,0,0-6.762-9.074ZM37.457,65.836h8.114a4.057,4.057,0,0,1-4.057,4.057H37.457ZM15.819,53.664H14.467A6.762,6.762,0,0,1,7.7,46.9V44.2a6.762,6.762,0,0,1,6.762-6.762h1.352Zm59.5-6.762a6.762,6.762,0,0,1-6.762,6.762H67.209V37.436h1.352A6.762,6.762,0,0,1,75.324,44.2Z" transform="translate(-5 -5.06)" fill="#0993dc"/>
</svg>
