<svg xmlns="http://www.w3.org/2000/svg" width="61.471" height="68.602" viewBox="0 0 61.471 68.602">
  <g id="team" transform="translate(-19.201)">
    <g id="Group_2918" data-name="Group 2918" transform="translate(19.201)">
      <g id="Group_2917" data-name="Group 2917">
        <path id="Path_3936" data-name="Path 3936" d="M173.7,158.32a8.12,8.12,0,1,0-8.12-8.12A8.128,8.128,0,0,0,173.7,158.32Zm0-13.007a4.887,4.887,0,1,1-4.887,4.887A4.892,4.892,0,0,1,173.7,145.313Z" transform="translate(-138.397 -115.694)" fill="#0993dc"/>
        <path id="Path_3937" data-name="Path 3937" d="M144.185,242.739H133.573a10.745,10.745,0,0,0-10.744,10.716V263.4a2.829,2.829,0,0,0,2.862,2.862h26.348A2.829,2.829,0,0,0,154.9,263.4v-9.936A10.723,10.723,0,0,0,144.185,242.739Zm7.483,20.3h-2.976V253.5a1.331,1.331,0,1,0-2.662,0v9.537H131.662V253.5a1.331,1.331,0,0,0-2.662,0v9.537h-2.929v-9.575a7.509,7.509,0,0,1,7.5-7.493h10.611a7.491,7.491,0,0,1,7.483,7.483v9.584Z" transform="translate(-103.584 -197.66)" fill="#0993dc"/>
        <path id="Path_3938" data-name="Path 3938" d="M228.382,16.24a8.12,8.12,0,1,0-8.12-8.12A8.128,8.128,0,0,0,228.382,16.24Zm0-13.007a4.887,4.887,0,1,1-4.887,4.887A4.892,4.892,0,0,1,228.382,3.233Z" transform="translate(-182.923)" fill="#0993dc"/>
        <path id="Path_3939" data-name="Path 3939" d="M213.643,103.755a10.653,10.653,0,0,0-7.578-3.147H195.282a10.705,10.705,0,0,0-8.605,4.374,1.615,1.615,0,1,0,2.6,1.921,7.463,7.463,0,0,1,6-3.052h10.8a7.5,7.5,0,0,1,7.483,7.483v9.584h-2.976v-9.537a1.331,1.331,0,1,0-2.662,0v9.537H199.58a1.616,1.616,0,1,0,0,3.233h14.339a2.829,2.829,0,0,0,2.862-2.862v-9.955h.009A10.613,10.613,0,0,0,213.643,103.755Z" transform="translate(-155.319 -81.924)" fill="#0993dc"/>
        <path id="Path_3940" data-name="Path 3940" d="M70.021,74.608a8.12,8.12,0,1,0-8.12-8.12A8.128,8.128,0,0,0,70.021,74.608Zm0-13.017a4.887,4.887,0,1,1-4.887,4.887A4.892,4.892,0,0,1,70.021,61.591Z" transform="translate(-53.971 -47.529)" fill="#0993dc"/>
        <path id="Path_3941" data-name="Path 3941" d="M36.278,179.327H28.062v-9.546a1.331,1.331,0,0,0-2.662,0v9.546H22.424v-9.584a7.5,7.5,0,0,1,7.512-7.483l10.678.009a7.18,7.18,0,0,1,2.748.532,1.682,1.682,0,0,0,.609.114,1.613,1.613,0,0,0,.609-3.109,10.463,10.463,0,0,0-3.955-.77l-10.678-.009A10.745,10.745,0,0,0,19.2,169.743v9.946a2.829,2.829,0,0,0,2.862,2.862H36.278a1.612,1.612,0,1,0,0-3.223Z" transform="translate(-19.201 -129.494)" fill="#0993dc"/>
      </g>
    </g>
  </g>
</svg>
