<svg xmlns="http://www.w3.org/2000/svg" width="62.298" height="63.517" viewBox="0 0 62.298 63.517">
  <path id="Pension_" data-name="Pension " d="M-1639.135-2379.149a3.654,3.654,0,0,1,3.631-3.706,3.654,3.654,0,0,1,3.631,3.706,3.654,3.654,0,0,1-3.631,3.705A3.654,3.654,0,0,1-1639.135-2379.149Zm1.334,0a2.309,2.309,0,0,0,2.3,2.3,2.309,2.309,0,0,0,2.3-2.3,2.309,2.309,0,0,0-2.3-2.3A2.309,2.309,0,0,0-1637.8-2379.149Zm-16.009-7.189a5.441,5.441,0,0,1,5.411-5.411,5.393,5.393,0,0,1,5.411,5.411,5.441,5.441,0,0,1-5.411,5.41A5.441,5.441,0,0,1-1653.81-2386.338Zm5.411,4a3.986,3.986,0,0,0,4-4,3.985,3.985,0,0,0-4-4,3.985,3.985,0,0,0-4,4,3.989,3.989,0,0,0,1.167,2.835.542.542,0,0,1-.1-.249.711.711,0,0,1,.234-.391.589.589,0,0,1,.312-.156c.078,0,.234.077.468.313a.678.678,0,0,0,.546.312c.391,0,.546-.157.546-.469,0-.078-.077-.156-.234-.234-.077-.078-.234-.078-.468-.157a1.48,1.48,0,0,1-.625-.156,2.1,2.1,0,0,1-.468-.391.954.954,0,0,1-.235-.7,1.389,1.389,0,0,1,.312-.781,1.324,1.324,0,0,1,.781-.469v-.391a1.588,1.588,0,0,1,.077-.391.46.46,0,0,1,.391-.156c.157,0,.234,0,.312.078a.272.272,0,0,1,.078.156v.7c.156,0,.234.077.468.156.078.078.157.156.234.156l.078.078c.078.156.157.234.157.312a1.32,1.32,0,0,1-.157.391c-.156.157-.234.234-.391.234a.289.289,0,0,1-.234-.077.27.27,0,0,1-.156-.078l-.078-.078c-.078-.078-.156-.078-.312-.078s-.234,0-.312.078-.156.157-.156.234,0,.156.156.235.234.156.391.156.312.078.468.078a1.109,1.109,0,0,1,.469.157.61.61,0,0,1,.312.312,1.48,1.48,0,0,1,.156.625,1.248,1.248,0,0,1-.312.938,1.328,1.328,0,0,1-.78.469v.3A4.064,4.064,0,0,0-1648.4-2382.336Zm41.431-.668-1.408-1.407-1.408,1.407a.8.8,0,0,1-.518.223.674.674,0,0,1-.519-.223.633.633,0,0,1,0-.963l1.409-1.408-1.409-1.408a.634.634,0,0,1,0-.964.634.634,0,0,1,.964,0l1.408,1.408,1.409-1.408a.634.634,0,0,1,.964,0,1.167,1.167,0,0,1,.148.964l-1.408,1.408,1.408,1.408a.632.632,0,0,1,0,.963.8.8,0,0,1-.518.223A.674.674,0,0,1-1606.969-2383Zm6.449-6.6a3.3,3.3,0,0,1,1.408-4.447,3.362,3.362,0,0,1,4.447,1.408,3.721,3.721,0,0,1,.222,2.52,3.239,3.239,0,0,1-1.631,1.927,3.375,3.375,0,0,1-1.482.371A3.4,3.4,0,0,1-1600.52-2389.6Zm2.075-3.187a1.863,1.863,0,0,0-.815,2.594,1.945,1.945,0,0,0,2.594.815,1.608,1.608,0,0,0,.964-1.112,2.107,2.107,0,0,0-.148-1.482,1.884,1.884,0,0,0-1.7-1.038A1.97,1.97,0,0,0-1598.445-2392.787Zm-46.1.207a2.547,2.547,0,0,1-1.327-3.437,2.754,2.754,0,0,1,2.42-1.563,2.489,2.489,0,0,1,1.093.235c1.562.7,3.122,1.25,4.684,1.8l3.2-4.921a1.991,1.991,0,0,0-.7.312,3.035,3.035,0,0,1-1.795.547,3.256,3.256,0,0,1-2.654-1.407,3.174,3.174,0,0,1,.859-4.453,12.523,12.523,0,0,1,5.073-1.8,10.19,10.19,0,0,1,6.323-6.562c2.5-.938,5.542-.938,8.664-.781a28.286,28.286,0,0,1,.859-3.046c1.327-3.595,2.966-5.937,5.152-6.953a3.065,3.065,0,0,1,1.406-.312,3.212,3.212,0,0,1,2.888,1.8,3.229,3.229,0,0,1-1.483,4.3s-.859.469-1.952,3.75a56.911,56.911,0,0,0-1.795,7.656c-.235,1.327-.469,2.5-.7,3.359a10.227,10.227,0,0,1-.546,1.484,3.584,3.584,0,0,1-3.2,2.11h-.391l3.2,5.078a31.147,31.147,0,0,0,4.371-1.953,2.287,2.287,0,0,1,1.249-.312,2.632,2.632,0,0,1,2.342,1.406,2.612,2.612,0,0,1,.156,2.031,2.3,2.3,0,0,1-1.248,1.562,36.3,36.3,0,0,1-17.408,4.453A45.989,45.989,0,0,1-1644.547-2392.58Zm.078-2.891a1.178,1.178,0,0,0,.625,1.563,44.186,44.186,0,0,0,18.11,4.218,35.443,35.443,0,0,0,16.7-4.3,1.062,1.062,0,0,0,.391-1.562,1.126,1.126,0,0,0-1.015-.625,1.442,1.442,0,0,0-.546.157,34.815,34.815,0,0,1-4.293,1.952l-2.108.7a32.815,32.815,0,0,1-9.211,1.328,38.684,38.684,0,0,1-10.538-1.562l-2.107-.7c-1.483-.547-2.966-1.094-4.45-1.8a.989.989,0,0,0-.469-.078A1.105,1.105,0,0,0-1644.469-2395.471Zm12.88-5.625-3.981,6.25a36.342,36.342,0,0,0,9.757,1.406,30.519,30.519,0,0,0,8.43-1.172l-3.825-6.016a73.362,73.362,0,0,0-7.727-.546h-.078A25.339,25.339,0,0,0-1631.589-2401.1Zm-.234-5a19.978,19.978,0,0,0-2.263.312,10.457,10.457,0,0,0-3.9,1.484,1.758,1.758,0,0,0-.468,2.422,2.008,2.008,0,0,0,1.483.781,1.357,1.357,0,0,0,.936-.312,9.619,9.619,0,0,1,2.732-.937,20.417,20.417,0,0,1,2.732-.313h1.639a42.2,42.2,0,0,1,6.635.547,11.676,11.676,0,0,1,1.717.156c.391,0,.7.077,1.015.077.468,0,.937.078,1.249.078h.156a2.007,2.007,0,0,0,1.874-1.327,8.12,8.12,0,0,0,.39-1.25q.352-1.289.7-3.281a49.793,49.793,0,0,1,1.8-7.89c1.093-3.437,2.185-4.375,2.731-4.609a1.74,1.74,0,0,0,.86-2.344,1.708,1.708,0,0,0-1.562-1.016,1.28,1.28,0,0,0-.78.156c-2.654,1.327-4.137,4.921-5.152,8.827q-.233,1.056-.468,2.11c-.312,1.406-.546,2.813-.781,4.063-.156,1.015-.39,2.109-.546,2.89-.234,0-.625-.077-.936-.077a87.978,87.978,0,0,0-8.978-.625C-1630.028-2406.173-1630.965-2406.173-1631.823-2406.1Zm11.552-.859a13.525,13.525,0,0,0,.312-1.562c.234-1.25.469-2.578.781-3.906-5.777-.234-9.913.235-12.021,5a19.648,19.648,0,0,1,2.185-.078A83.413,83.413,0,0,1-1620.271-2406.955Zm-35.392-16.665a2.916,2.916,0,0,1,1.185-3.928,2.944,2.944,0,0,1,3.929,1.26,2.853,2.853,0,0,1-1.186,3.928,2.436,2.436,0,0,1-1.26.3A3.111,3.111,0,0,1-1655.663-2423.619Zm1.927-2.742a1.508,1.508,0,0,0-.667,2.075,1.571,1.571,0,0,0,2.075.667,1.509,1.509,0,0,0,.668-2.075,1.591,1.591,0,0,0-1.408-.815A1.1,1.1,0,0,0-1653.736-2426.361Zm45.211-4.447a7.434,7.434,0,0,1,7.411-7.411,7.433,7.433,0,0,1,7.411,7.411,7.433,7.433,0,0,1-7.411,7.412A7.434,7.434,0,0,1-1608.525-2430.808Zm1.334,0a6.105,6.105,0,0,0,6.078,6.078,6.105,6.105,0,0,0,6.078-6.078,6.105,6.105,0,0,0-6.078-6.078A6.105,6.105,0,0,0-1607.191-2430.808Zm-13.934,1.112a3.8,3.8,0,0,1,3.78-3.78,3.8,3.8,0,0,1,3.78,3.78,3.8,3.8,0,0,1-3.78,3.78A3.8,3.8,0,0,1-1621.125-2429.7Zm1.408,0a2.388,2.388,0,0,0,2.371,2.372,2.438,2.438,0,0,0,2.372-2.372,2.438,2.438,0,0,0-2.372-2.372A2.438,2.438,0,0,0-1619.717-2429.7Zm19.274,2.353a.168.168,0,0,1-.157-.156,1.153,1.153,0,0,1-.078-.546v-.625a2.313,2.313,0,0,1-.78-.312,2.9,2.9,0,0,1-.468-.391l-.157-.156a.679.679,0,0,1-.234-.469c0-.157.156-.312.391-.547a.676.676,0,0,1,.468-.234c.234,0,.391.078.7.391a1.084,1.084,0,0,0,.78.391c.546,0,.78-.157.78-.625a.519.519,0,0,0-.312-.391,3.677,3.677,0,0,0-.7-.234,3.506,3.506,0,0,1-.859-.235,2.138,2.138,0,0,1-.7-.546,1.329,1.329,0,0,1-.312-1.016,1.919,1.919,0,0,1,.391-1.171,1.706,1.706,0,0,1,1.093-.625v-.625c0-.235,0-.469.078-.547.078-.157.234-.234.546-.234a.574.574,0,0,1,.468.156c.078.078.157.157.157.235v.937a1.129,1.129,0,0,1,.546.156c.156.078.234.078.312.157l.078.077h.077a.717.717,0,0,1,.235.391,1.037,1.037,0,0,1-.235.547c-.156.234-.312.391-.546.391a.468.468,0,0,1-.312-.078c-.077-.078-.156-.078-.234-.156-.078,0-.078-.077-.156-.077-.157,0-.312-.078-.469-.078a.663.663,0,0,0-.468.156.6.6,0,0,0-.157.391.429.429,0,0,0,.235.391,1.123,1.123,0,0,0,.546.156,2.275,2.275,0,0,1,.7.156l.7.234c.234.078.391.312.546.391a1.67,1.67,0,0,1,.234.938,1.836,1.836,0,0,1-.468,1.327,2.144,2.144,0,0,1-1.171.625v.7c0,.312,0,.469-.078.546-.078.157-.156.235-.234.235a.7.7,0,0,1-.391.078A3.344,3.344,0,0,1-1600.443-2427.344Zm-42.546-6.651-1.408-1.408-1.409,1.408a.673.673,0,0,1-.518.222.677.677,0,0,1-.519-.222.634.634,0,0,1,0-.964l1.408-1.409-1.408-1.407a.634.634,0,0,1,0-.964.634.634,0,0,1,.964,0l1.408,1.408,1.408-1.408a.634.634,0,0,1,.964,0,.789.789,0,0,1,.148.964l-1.408,1.407,1.408,1.409a.634.634,0,0,1,0,.964.805.805,0,0,1-.519.222A.674.674,0,0,1-1642.989-2434Z" transform="translate(1656 2438.961)" fill="#00a6ff"/>
</svg>
