<svg xmlns="http://www.w3.org/2000/svg" width="88.465" height="54.634" viewBox="0 0 88.465 54.634">
  <g id="handshake" transform="translate(0 -97.901)">
    <path id="Path_3935" data-name="Path 3935" d="M1.676,125.468l7.05,2.781a2.642,2.642,0,0,0,2.674-.436l5.583,3.521.958.673a4.719,4.719,0,0,0,4.51,7.205,4.717,4.717,0,0,0,5.226,4.432,4.717,4.717,0,0,0,5.228,4.431,4.718,4.718,0,0,0,8.31,2.795l1.12-1.315,1.888,1.393a5.2,5.2,0,0,0,8.3-3.569,5.161,5.161,0,0,0,6.991-4.758,5.169,5.169,0,0,0,6.164-4.764,5.162,5.162,0,0,0,6.02-7.125l5.045-3.241a2.647,2.647,0,0,0,2.993.757l7.05-2.781a2.649,2.649,0,0,0,1.49-3.432l-3.222-8.168a1.3,1.3,0,0,0-2.411.951l3.222,8.168a.054.054,0,0,1-.03.07l-7.05,2.781a.054.054,0,0,1-.07-.03l-8.86-22.46a.049.049,0,0,1,0-.041.051.051,0,0,1,.03-.029l7.051-2.781a.049.049,0,0,1,.041,0,.051.051,0,0,1,.029.03l3.416,8.659a1.3,1.3,0,0,0,2.411-.951L79.42,99.576a2.649,2.649,0,0,0-3.432-1.49l-7.051,2.781A2.64,2.64,0,0,0,67.35,104l-3.78,1.4a7.358,7.358,0,0,1-3.692.364l-3.821-.606a1.3,1.3,0,0,0-.406,2.56l3.821.606a9.957,9.957,0,0,0,5-.492l3.814-1.408,7.375,18.7L70.1,128.683l-.094-.07h0L59.282,120.7a1.3,1.3,0,0,0-1.02-.23,15.073,15.073,0,0,1-13.717-4.691,2.929,2.929,0,0,0-4.09-.14c-3.433,3.083-8.23,6.089-11.586,2.9a.771.771,0,0,1,.171-1.229A76.589,76.589,0,0,0,41.309,107.1a3.941,3.941,0,0,1,3.415-1.116l4.919.78a1.3,1.3,0,0,0,.406-2.56l-4.919-.78a6.541,6.541,0,0,0-5.664,1.854c-.412.417-.9.9-1.45,1.432a18.5,18.5,0,0,0-5.148-1.039A59.689,59.689,0,0,0,26.1,105.4a6.038,6.038,0,0,1-2.7-.453l-2.284-.956a2.648,2.648,0,0,0-1.589-3.122l-7.05-2.781a2.649,2.649,0,0,0-3.432,1.49L.186,122.036a2.644,2.644,0,0,0,1.49,3.432ZM23.562,135.9a2.13,2.13,0,0,1-3.251-2.752l3.205-3.762a2.13,2.13,0,1,1,3.249,2.755h0Zm5.226,4.431a2.13,2.13,0,0,1-3.251-2.753l3.205-3.762a2.137,2.137,0,0,1,3.16-.1l.017.019a2.132,2.132,0,0,1,.073,2.835Zm5.226,4.431a2.13,2.13,0,0,1-3.251-2.752l3.205-3.762A2.13,2.13,0,1,1,37.217,141h0Zm8.447.648-.016.02-3.205,3.762a2.13,2.13,0,0,1-3.251-2.752l3.205-3.762a2.129,2.129,0,0,1,3.266,2.732Zm-22.274-39,2.215.927a8.637,8.637,0,0,0,3.867.648,59.764,59.764,0,0,1,6.454.27,15.907,15.907,0,0,1,3.113.487,65.442,65.442,0,0,1-8.235,6.416,3.361,3.361,0,0,0-.516,5.263c2.165,2.057,7.006,4.422,15.1-2.85a.348.348,0,0,1,.486,0,17.851,17.851,0,0,0,15.485,5.537c.68.478-.637-.487,10.3,7.587h0a2.654,2.654,0,0,1,.582,3.736,2.578,2.578,0,0,1-3.581.491c-1.536-1.133-.4-.271-5.8-4.43a1.3,1.3,0,1,0-1.582,2.053L62.559,136a2.606,2.606,0,0,1-.234,3.4,2.661,2.661,0,0,1-3.439.2c-1.027-.758-.174-.109-4.885-3.736a1.3,1.3,0,0,0-1.581,2.054l3.972,3.058a2.6,2.6,0,0,1-.106,3.294,2.659,2.659,0,0,1-3.555.317c-1.787-1.319-.89-.638-4.333-3.3a1.3,1.3,0,1,0-1.586,2.05l2.753,2.131a2.588,2.588,0,0,1-.32,3.164,2.649,2.649,0,0,1-3.484.242l-1.742-1.285.4-.47a4.722,4.722,0,0,0-4.115-7.747,4.718,4.718,0,0,0-5.1-4.443l-.126.012c0-.041,0-.083-.007-.125a4.686,4.686,0,0,0-1.115-2.679l-.012-.014a4.722,4.722,0,0,0-4.091-1.612,4.722,4.722,0,0,0-8.314-2.8L19.589,130l-1.142-.8-.054-.036-5.751-3.627ZM2.6,122.987l8.86-22.459a.054.054,0,0,1,.07-.031l7.05,2.781a.054.054,0,0,1,.031.07l-8.86,22.46a.054.054,0,0,1-.07.03l-7.05-2.781a.054.054,0,0,1-.031-.07Z" transform="translate(0)" fill="#0993dc"/>
  </g>
</svg>
