<svg id="XMLID_1371_" xmlns="http://www.w3.org/2000/svg" width="59.774" height="59.774" viewBox="0 0 59.774 59.774">
  <g id="XMLID_174_" transform="translate(0 0)">
    <path id="XMLID_175_" d="M183.082,7.061a1.167,1.167,0,0,0-.282-1.627,29.935,29.935,0,0,0-28.407-3.258,1.167,1.167,0,0,0,.877,2.164,27.6,27.6,0,0,1,26.186,3,1.167,1.167,0,0,0,1.627-.282Z" transform="translate(-135.724 0)" fill="#0993dc"/>
    <path id="XMLID_216_" d="M407.563,125.949a29.741,29.741,0,0,0-5.08-16.674,1.167,1.167,0,0,0-1.937,1.3,27.563,27.563,0,0,1-.521,31.486,4.446,4.446,0,1,0,1.8,1.494A29.585,29.585,0,0,0,407.563,125.949ZM398.2,148.207a2.1,2.1,0,1,1,2.1-2.1A2.1,2.1,0,0,1,398.2,148.207Z" transform="translate(-347.789 -96.062)" fill="#0993dc"/>
    <path id="XMLID_219_" d="M40.228,95.492A27.569,27.569,0,0,1,2.335,69.946a27.27,27.27,0,0,1,5.2-16.116,4.446,4.446,0,1,0-1.8-1.494,29.888,29.888,0,0,0,24.149,47.5,29.732,29.732,0,0,0,11.218-2.177,1.168,1.168,0,0,0-.877-2.164Zm-30.86-47.8a2.1,2.1,0,1,1-2.1,2.1A2.1,2.1,0,0,1,9.368,47.689Z" transform="translate(0 -40.059)" fill="#0993dc"/>
    <path id="XMLID_222_" d="M222.178,233.77a4.471,4.471,0,0,0-3.5,7.25v3.486a3.5,3.5,0,0,0,7,0V241.02a4.471,4.471,0,0,0-3.5-7.25Zm1.51,5.981a1.168,1.168,0,0,0-.342.826v3.929a1.167,1.167,0,1,1-2.335,0v-3.929a1.168,1.168,0,0,0-.342-.826,2.136,2.136,0,1,1,3.019,0Z" transform="translate(-192.291 -206.478)" fill="#0993dc"/>
    <path id="XMLID_225_" d="M166.044,96.3V93.9a10.735,10.735,0,1,0-21.47,0V96.3A4.229,4.229,0,0,0,142,100.184v15.371a4.227,4.227,0,0,0,4.222,4.222H164.4a4.227,4.227,0,0,0,4.222-4.222V100.184A4.229,4.229,0,0,0,166.044,96.3ZM146.909,93.9a8.4,8.4,0,1,1,16.8,0v2.058H161.26V93.9a5.951,5.951,0,0,0-11.9,0v2.058h-2.449V93.9Zm4.784,2.058V93.9a3.616,3.616,0,0,1,7.233,0v2.058Zm14.59,19.594a1.89,1.89,0,0,1-1.887,1.888H146.222a1.89,1.89,0,0,1-1.887-1.888V100.184a1.89,1.89,0,0,1,1.887-1.887H164.4a1.89,1.89,0,0,1,1.887,1.887Z" transform="translate(-125.422 -73.458)" fill="#0993dc"/>
    <path id="XMLID_233_" d="M422.927,76.224a1.166,1.166,0,1,0-.825-.341A1.175,1.175,0,0,0,422.927,76.224Z" transform="translate(-372.521 -65.264)" fill="#0993dc"/>
  </g>
</svg>
