<svg xmlns="http://www.w3.org/2000/svg" width="51.029" height="69.948" viewBox="0 0 51.029 69.948">
  <g id="badge" transform="translate(0 0)">
    <path id="Path_3942" data-name="Path 3942" d="M49.75,21.942l-3.284-3.984a3.524,3.524,0,0,1-.792-1.914l-.5-5.14a5.627,5.627,0,0,0-5.053-5.053l-5.14-.495a3.532,3.532,0,0,1-1.914-.792L29.087,1.28a5.627,5.627,0,0,0-7.145,0L17.958,4.565a3.529,3.529,0,0,1-1.914.792l-5.14.495A5.627,5.627,0,0,0,5.852,10.9l-.495,5.14a3.532,3.532,0,0,1-.792,1.914L1.28,21.942a5.627,5.627,0,0,0,0,7.145l3.285,3.984a3.532,3.532,0,0,1,.792,1.914l.495,5.14A5.627,5.627,0,0,0,10.9,45.178l3.142.3L6.582,63.317a1.36,1.36,0,0,0,1.624,1.832l6.476-1.828a.059.059,0,0,1,.068.027l3.243,5.9a1.347,1.347,0,0,0,1.188.7l.071,0a1.354,1.354,0,0,0,1.186-.833l7.881-18.833a5.6,5.6,0,0,0,.769-.532l3.984-3.284a3.523,3.523,0,0,1,1.752-.771L41.962,62.75l-5.051-1.426a2.126,2.126,0,0,0-2.448,1.024l-2.529,4.6-3.351-8.008a1.037,1.037,0,1,0-1.914.8l3.925,9.38a1.351,1.351,0,0,0,1.184.827l.071,0a1.348,1.348,0,0,0,1.188-.7l3.243-5.9a.06.06,0,0,1,.068-.028l6.475,1.828a1.36,1.36,0,0,0,1.624-1.833L36.983,45.48l3.142-.3a5.626,5.626,0,0,0,5.053-5.052l.5-5.14a3.523,3.523,0,0,1,.792-1.913l3.284-3.984a5.626,5.626,0,0,0,0-7.145Zm-30.653,45-2.53-4.6a2.125,2.125,0,0,0-2.448-1.023L9.068,62.749l7.137-17.055a3.527,3.527,0,0,1,1.753.771l3.984,3.285a5.607,5.607,0,0,0,3.573,1.28c.082,0,.163,0,.244-.006ZM48.149,27.768l-3.284,3.984a5.593,5.593,0,0,0-1.257,3.034l-.495,5.14a3.548,3.548,0,0,1-3.186,3.186l-4.515.435-.053.005-.572.055a5.6,5.6,0,0,0-3.034,1.257l-3.984,3.284a3.548,3.548,0,0,1-4.506,0l-3.984-3.284a5.592,5.592,0,0,0-3.034-1.257l-.574-.056-.047,0L11.1,43.113a3.548,3.548,0,0,1-3.186-3.186l-.495-5.139a5.593,5.593,0,0,0-1.257-3.034L2.881,27.768a3.549,3.549,0,0,1,0-4.507l3.284-3.984a5.593,5.593,0,0,0,1.257-3.034l.495-5.14A3.548,3.548,0,0,1,11.1,7.917l5.14-.495a5.6,5.6,0,0,0,3.034-1.257l3.984-3.284a3.547,3.547,0,0,1,4.506,0l3.984,3.284a5.592,5.592,0,0,0,3.034,1.257l5.14.495A3.548,3.548,0,0,1,43.113,11.1l.495,5.14a5.593,5.593,0,0,0,1.257,3.034l3.284,3.984a3.55,3.55,0,0,1,0,4.507Zm0,0" transform="translate(0)" fill="#0993dc"/>
    <path id="Path_3943" data-name="Path 3943" d="M84.36,68.156a16.365,16.365,0,0,0-2.073.131,1.037,1.037,0,0,0,.263,2.058,14.29,14.29,0,0,1,1.81-.115,14.117,14.117,0,1,1-5.782,1.233,1.037,1.037,0,0,0-.85-1.892,16.211,16.211,0,1,0,6.631-1.415Zm0,0" transform="translate(-58.845 -58.844)" fill="#0993dc"/>
    <path id="Path_3944" data-name="Path 3944" d="M105.5,138.233a3.175,3.175,0,0,0,0,4.485l4.53,4.531a3.173,3.173,0,0,0,4.486,0l9.889-9.89a3.172,3.172,0,0,0-4.486-4.486l-7.646,7.647-2.288-2.287a3.175,3.175,0,0,0-4.485,0Zm6.773,4.792a1.037,1.037,0,0,0,.733-.3l8.38-8.38a1.1,1.1,0,0,1,1.552,1.552l-9.889,9.89a1.1,1.1,0,0,1-1.552,0l-4.531-4.53a1.1,1.1,0,0,1,1.552-1.552l3.021,3.021A1.037,1.037,0,0,0,112.271,143.025Zm0,0" transform="translate(-90.284 -113.92)" fill="#0993dc"/>
  </g>
</svg>
